<svg width="77" height="88" fill="none" xmlns="http://www.w3.org/2000/svg"><path d="M14 6h49v60H14z"/><path d="M63 30.742C63 44.407 48.913 56.103 38.5 66 28.087 55.484 14 44.407 14 30.742 14 17.077 24.969 6 38.5 6S63 17.078 63 30.742z" fill="#fff" filter="url(#filter0_d)"/><path d="M26.25 15.896h25.725V49.3H26.25z"/><path fill-rule="evenodd" clip-rule="evenodd" d="M28.958 18.14l3.332.517v1.552l-.175.173c-.351.345-.526.776-.702 1.207-.087.173-.087.432-.175.604-.526 0-.965.086-1.315.173-.351.172-.614.345-.877.69-.175.258-.35.603-.35.948-.089.518 0 1.122.087 1.726-.263-.087-.526-.087-.79-.087h-.35l-.088.345c-.35.95-.263 2.502-.087 3.71-.088 0-.176-.087-.264-.087l-.438-.086-.175.431c0 .086-.088.172-.088.345a5.708 5.708 0 0 0 .088 3.623c.35.949.964 1.811 2.016 2.329-.438.517-.701 1.12-.876 1.725-.264 1.466.263 3.018.526 3.45l.175.345.439-.086c.438-.087.876-.26 1.14-.432 0 .173 0 .432.087.604.088.69.35 1.294.79 1.898l.174.259.351-.087c.526-.086.877-.172 1.14-.345a5.912 5.912 0 0 0 1.403 2.76c.79.777 1.754 1.294 2.806 1.64.263.344.526.603.877.862 1.052.604 1.929.604 2.981 0 .35-.173.702-.518.877-.863 1.052-.345 2.017-.862 2.806-1.639.701-.69 1.227-1.552 1.403-2.76.263.173.526.259 1.14.345l.35.087.176-.26c.35-.517.613-1.207.789-1.897 0-.172.087-.431.087-.604.351.173.702.345 1.14.432l.439.086.175-.345c.263-.518.79-2.07.526-3.45a2.978 2.978 0 0 0-.877-1.725c1.053-.518 1.666-1.38 2.017-2.33.438-1.12.35-2.5.088-3.622 0-.086-.088-.172-.088-.345l-.175-.431-.439.086c-.087 0-.175 0-.263.086.088-1.207.176-2.76-.087-3.709l-.088-.345h-.35c-.264 0-.527 0-.79.087a3.89 3.89 0 0 0 .088-1.726c-.088-.345-.176-.69-.351-.948-.175-.26-.526-.518-.877-.69-.35-.173-.789-.26-1.315-.173 0-.172-.088-.431-.175-.604-.088-.431-.351-.862-.702-1.207l-.175-.173v-1.552l3.332-.518v-.431l-10.084-1.811-10.083 1.81v.432h-.176z" fill="#2B2A29"/><path fill-rule="evenodd" clip-rule="evenodd" d="M37.11 33.492c-1.49-3.968-3.156-2.329-3.244-1.811-.614-.173-1.403-.69-1.403-.69-.263.431.088 1.725.439 2.07 1.315 1.466 1.402 3.191 1.578 4.916 0 .432.263.95.526 1.208 1.49 1.38 2.192 1.639 4.121.431 1.93 1.208 2.63.949 4.121-.431.263-.259.526-.776.526-1.208.088-1.811.263-3.45 1.579-4.916.35-.345.701-1.639.438-2.07 0 0-.79.604-1.403.69-.088-.518-1.754-2.157-3.244 1.811-.088-.776-.088-1.897.087-2.846.79-.604 1.491-.777 2.28-.863.79-.086 1.14-.345 1.228-1.035-1.403-1.552-1.14-3.019-1.49-3.364a3.558 3.558 0 0 0-1.667-.172c-.526.345-1.841 1.035-2.455 1.035-.614 0-1.929-.69-2.455-1.035a3.558 3.558 0 0 0-1.666.172c-.263.345-.088 1.812-1.49 3.364.087.604.438.949 1.227 1.035.79.086 1.49.259 2.28.863.175.949.175 2.07.087 2.846zm1.93 5.175c-.702-.172-1.579-.69-2.105-1.207-.263-.518-.35-1.639.263-2.415v1.207c.263.518 1.228.777 1.754.777.614 0 1.49-.173 1.753-.777 0-.431.088-.776 0-1.207.614.776.526 1.897.263 2.415-.438.517-1.403 1.035-2.104 1.207h.175zm6.137.69c-.438 1.208-.35 2.933 1.316 3.278.789-2.415-.527-3.019-1.316-3.277zm4.209-11.903c-1.228.087-2.543 1.984-2.28 4.14 2.28-.172 2.368-1.81 2.28-4.14zm1.052 4.054c-1.578 1.38-3.42.95-4.91 3.537 4.121.862 5.349-.863 4.91-3.537zm-5.436-6.296c.526-1.294 3.156-2.502 2.893-.345-.876-.777-1.753.258-1.227 1.035.526.776.438 1.552-.263 2.156-1.316-.259-1.842-1.898-1.403-2.846zm.263-3.278c.438 1.553-1.228 2.674-2.192 2.07.087-.345.526-1.639 2.192-2.07zm-6.226 19.494c.614 0 .877.258 1.403.43.526.173 1.316-.43 1.316-.258 0 .259-.088.431-.176.69-.789 1.466-1.14 1.121-2.543 1.121-1.403 0-1.841.345-2.542-1.12a1.604 1.604 0 0 1-.176-.69c0-.173.79.43 1.316.258.526-.173.876-.431 1.402-.431zm.702-20.27c.175-.604.438-1.122 1.052-1.122.79 0 1.052.863 1.052 1.38.526 0 .877-.086 1.49-.43-.087 1.638-2.367 3.363-3.331 3.45.35-.346.964-2.416-.263-3.192v-.086zm3.332 20.01c.263-.258.526-.43.701-.603 1.49 2.415.176 5.262-2.28 5.865-.263-.43-.438-1.035-.087-1.725 1.403-.603 2.017-1.811 1.666-3.536zm-2.894 5.952c-.175-.603-.438-1.552-.175-2.242-.175-.431-.702-.604-.965-.604s-.701.172-.964.604c.263.69 0 1.639-.175 2.242.263.432.701.604 1.14.604.438 0 .876-.259 1.14-.604zm8.769-6.986c.876-2.933-1.14-3.882-3.42-3.795-.263 1.725 1.578 2.5 3.42 3.795zm-16.046-.863c.438 1.208.35 2.933-1.316 3.278-.789-2.415.526-3.019 1.316-3.278zm-4.21-11.903c1.228.086 2.544 1.984 2.28 4.14-2.28-.172-2.367-1.811-2.28-4.14zm-1.051 4.054c1.578 1.38 3.42.949 4.91 3.537-4.121.862-5.349-.863-4.91-3.537zm5.436-6.297c-.526-1.293-3.157-2.5-2.894-.345.877-.776 1.754.26 1.228 1.035-.526.777-.439 1.553.263 2.157 1.315-.259 1.841-1.898 1.403-2.847zm-.263-3.277c-.438 1.552 1.227 2.674 2.192 2.07-.088-.345-.526-1.639-2.192-2.07zm5.524-.776c-.175-.604-.438-1.122-1.052-1.122-.79 0-1.053.863-1.053 1.38-.526 0-.876-.086-1.49-.431.088 1.639 2.367 3.364 3.332 3.45-.35-.345-.965-2.415.263-3.191v-.087zm-3.332 20.01c-.263-.258-.526-.43-.702-.603-1.49 2.415-.175 5.261 2.28 5.865.263-.431.439-1.035.088-1.725-1.403-.604-2.017-1.811-1.666-3.536zm-5.962-1.035c-.877-2.932 1.14-3.881 3.42-3.795.262 1.725-1.58 2.502-3.42 3.795z" fill="#FEFEFE"/><defs><filter id="filter0_d" x="0" y="0" width="77" height="88" filterUnits="userSpaceOnUse" color-interpolation-filters="sRGB"><feFlood flood-opacity="0" result="BackgroundImageFix"/><feColorMatrix in="SourceAlpha" values="0 0 0 0 0 0 0 0 0 0 0 0 0 0 0 0 0 0 127 0"/><feOffset dy="8"/><feGaussianBlur stdDeviation="7"/><feColorMatrix values="0 0 0 0 0 0 0 0 0 0.0823529 0 0 0 0 0.160784 0 0 0 0.12 0"/><feBlend in2="BackgroundImageFix" result="effect1_dropShadow"/><feBlend in="SourceGraphic" in2="effect1_dropShadow" result="shape"/></filter></defs></svg>